<?xml version="1.0" encoding="UTF-8"?>
<svg width="20px" height="21px" viewBox="0 0 20 21" version="1.1" xmlns="http://www.w3.org/2000/svg" xmlns:xlink="http://www.w3.org/1999/xlink">
    <!-- Generator: Sketch 50.2 (55047) - http://www.bohemiancoding.com/sketch -->
    <title>Compass - simple-line-icons</title>
    <desc>Created with Sketch.</desc>
    <defs></defs>
    <g id="Page-1" stroke="none" stroke-width="1" fill="none" fill-rule="evenodd">
        <g id="Artboard-2" transform="translate(-24.000000, -232.000000)" fill="#FFFFFF">
            <path d="M38.3164062,237.71875 C38.4335943,237.666666 38.557291,237.650391 38.6875,237.669922 C38.817709,237.689453 38.928385,237.744791 39.0195312,237.835938 C39.0976566,237.927084 39.1464843,238.03776 39.1660156,238.167969 C39.185547,238.298178 39.1627607,238.421874 39.0976562,238.539062 L36.1484375,244.339844 C36.1223957,244.391927 36.0865888,244.4375 36.0410156,244.476562 C35.9954425,244.515625 35.9466148,244.548177 35.8945312,244.574219 L29.9179688,247.054688 C29.8789061,247.080729 29.8398439,247.097005 29.8007812,247.103516 C29.7617186,247.110026 29.7161461,247.113281 29.6640625,247.113281 C29.5859371,247.113281 29.5110681,247.097005 29.4394531,247.064453 C29.3678382,247.031901 29.3059898,246.989584 29.2539062,246.9375 C29.16276,246.846354 29.107422,246.738933 29.0878906,246.615234 C29.0683593,246.491536 29.0846352,246.371094 29.1367188,246.253906 L31.9492188,240.609375 C31.9752605,240.557291 32.0110675,240.508464 32.0566406,240.462891 C32.1022138,240.417317 32.1510414,240.381511 32.203125,240.355469 L38.3164062,237.71875 Z M30.9921875,245.238281 L34.4101562,243.910156 L32.6914062,241.761719 L30.9921875,245.238281 Z M35.4257812,243.1875 L37.1445312,239.652344 L33.6875,241 L35.4257812,243.1875 Z M34,232.25 C35.3802152,232.25 36.6790304,232.510414 37.8964844,233.03125 C39.1139384,233.552086 40.1751257,234.264969 41.0800781,235.169922 C41.9850306,236.074874 42.6979141,237.136062 43.21875,238.353516 C43.7395859,239.57097 44,240.869785 44,242.25 C44,243.630215 43.7395859,244.92903 43.21875,246.146484 C42.6979141,247.363938 41.9850306,248.425126 41.0800781,249.330078 C40.1751257,250.235031 39.1139384,250.947914 37.8964844,251.46875 C36.6790304,251.989586 35.3802152,252.25 34,252.25 C32.6197848,252.25 31.3209696,251.989586 30.1035156,251.46875 C28.8860616,250.947914 27.8248743,250.235031 26.9199219,249.330078 C26.0149694,248.425126 25.3020859,247.363938 24.78125,246.146484 C24.2604141,244.92903 24,243.630215 24,242.25 C24,240.869785 24.2604141,239.57097 24.78125,238.353516 C25.3020859,237.136062 26.0149694,236.074874 26.9199219,235.169922 C27.8248743,234.264969 28.8860616,233.552086 30.1035156,233.03125 C31.3209696,232.510414 32.6197848,232.25 34,232.25 Z M34,251.019531 C35.2109436,251.019531 36.3469999,250.788414 37.4082031,250.326172 C38.4694063,249.86393 39.3938763,249.235681 40.1816406,248.441406 C40.969405,247.647131 41.5943987,246.719406 42.0566406,245.658203 C42.5188825,244.597 42.75,243.460944 42.75,242.25 C42.75,241.039056 42.5188825,239.903 42.0566406,238.841797 C41.5943987,237.780594 40.969405,236.856124 40.1816406,236.068359 C39.3938763,235.280595 38.4694063,234.655601 37.4082031,234.193359 C36.3469999,233.731117 35.2109436,233.5 34,233.5 C32.7890564,233.5 31.6530001,233.731117 30.5917969,234.193359 C29.5305937,234.655601 28.6061237,235.280595 27.8183594,236.068359 C27.030595,236.856124 26.4056013,237.780594 25.9433594,238.841797 C25.4811175,239.903 25.25,241.039056 25.25,242.25 C25.25,243.460944 25.4811175,244.597 25.9433594,245.658203 C26.4056013,246.719406 27.030595,247.647131 27.8183594,248.441406 C28.6061237,249.235681 29.5305937,249.86393 30.5917969,250.326172 C31.6530001,250.788414 32.7890564,251.019531 34,251.019531 Z" id="Compass---simple-line-icons"></path>
        </g>
    </g>
</svg>